<?xml version="1.0" encoding="utf-8"?>
<svg version="1.1" xmlns="http://www.w3.org/2000/svg" xmlns:xlink="http://www.w3.org/1999/xlink" x="0px" y="0px"
	 viewBox="0 0 80.3 80.3" style="enable-background:new 0 0 80.3 80.3;" xml:space="preserve">
<style type="text/css">
	.st0{fill:#0077FF;}
	.st1{fill:#00D9ED;}
	.st2{fill:#FFFFFF;}
</style>
<path class="st0" d="M0,38.2c0-18,0-27,5.6-32.6S20.2,0,38.2,0h3.9c18,0,27,0,32.6,5.6c5.6,5.6,5.6,14.6,5.6,32.6v3.9
	c0,18,0,27-5.6,32.6s-14.6,5.6-32.6,5.6h-3.9c-18,0-27,0-32.6-5.6S0,60.1,0,42.1V38.2z"/>
<path class="st1" d="M0.1,27.9C0,31.3,0,35.2,0,39.6v2.5c0,18,0,27,5.6,32.6s14.6,5.6,32.6,5.6h3.9c18,0,27,0,32.6-5.6
	s5.6-14.6,5.6-32.6v-2.5c0-4.4,0-8.3-0.1-11.7c-0.3,10.5-1.3,16.7-5.5,20.9c-5.6,5.6-14.6,5.6-32.6,5.6h-3.9c-18,0-27,0-32.6-5.6
	C1.4,44.6,0.3,38.4,0.1,27.9z"/>
<path class="st2" d="M16.5,25.9c0-5,4-9,9-9s9,4,9,9v1.6c0,5-4,9-9,9s-9-4-9-9V25.9z"/>
<path class="st2" d="M9.1,51.4c5.7,3,14.4,3,29.1,3h4c13.9,0,22.4,0,28.1-2.6c-3.1-5.3-8.9-8.9-15.5-8.9c-5.6,0-10.5,2.5-13.8,6.5
	c-3.1-5.4-8.9-9-15.5-9C18.1,40.6,11.8,45,9.1,51.4z"/>
<path class="st2" d="M45.4,28.3c0-5,4-9,9-9s9,4,9,9v1.6c0,5-4,9-9,9s-9-4-9-9V28.3z"/>
</svg>
