<svg width="32" height="40" viewBox="0 0 32 40" fill="none" xmlns="http://www.w3.org/2000/svg">
<path d="M15.3945 3.72315C15.3945 5.77973 13.7235 7.44638 11.6625 7.44638C9.60111 7.44638 7.93005 5.77973 7.93005 3.72315C7.93005 1.66705 9.60111 0 11.6625 0C13.7235 0 15.3945 1.66705 15.3945 3.72315Z" fill="#783291"/>
<path d="M24.8433 23.9815H24.9622L25.9374 20.3342L28.1854 11.9653L22.1799 15.4265L23.7404 20.1818C24.1779 21.4272 24.5457 22.6956 24.8433 23.9815Z" fill="#BA1030"/>
<path d="M22.214 33.628L18.7536 22.9238L17.7356 19.8776L17.6257 19.8433L16.7854 22.8051L14.4363 31.5464L12.3582 32.7398L14.1392 38.257L20.6196 39.983L20.6279 39.9747V40.0001L28.6945 35.3545L22.214 33.628Z" fill="#BA1030"/>
<path d="M8.07487 29.8454L13.8933 8.17432L5.82731 12.8028L0 34.4745L6.36993 36.1755L12.3583 32.7397L14.4365 31.5463L8.07487 29.8454Z" fill="#783291"/>
</svg>
